<svg xmlns="http://www.w3.org/2000/svg" width="50" height="50" viewBox="0 0 50 50" style="fill: rgb(255, 255, 255);">
    <path style="text-indent:0;text-align:start;line-height:normal;text-transform:none;block-progression:tb;-inkscape-font-specification:Bitstream Vera Sans" d="M 25 0 C 11.204726 0 0 11.204726 0 25 C 0 38.795274 11.204726 50 25 50 C 38.795274 50 50 38.795274 50 25 C 50 11.204726 38.795274 0 25 0 z M 25 2 C 37.714394 2 48 12.285606 48 25 C 48 37.714394 37.714394 48 25 48 C 12.285606 48 2 37.714394 2 25 C 2 12.285606 12.285606 2 25 2 z M 25.90625 10.59375 C 17.99425 10.59375 12.90625 16.38075 12.90625 21.96875 C 12.90625 27.42075 15.8255 28.6955 16.4375 29.0625 C 17.0495 29.4315 17.489 29.1905 17.625 28.6875 L 18 27.15625 C 18 27.15625 18.1515 26.7345 17.8125 26.3125 C 17.3955 25.7935 16.5 24.856 16.5 22.5 C 16.5 18.299 19.70625 13.71875 25.53125 13.71875 C 31.24825 13.71875 33.21875 17.569 33.21875 20.75 C 33.21875 24.706 31.375 30.625 27.5 30.625 C 25.094 30.625 24.40625 28.688 24.40625 27.75 C 24.39025 27.433 24.47 27.12075 24.5 26.96875 C 24.53 26.81775 25.5005 23.61475 25.8125 22.46875 C 26.5125 19.89875 25.913 17.75 23.625 17.75 C 20.399 17.75 19.24025 22.4385 20.65625 25.4375 L 18.34375 35.15625 C 18.34375 35.15625 18.03075 36.7475 17.96875 37.6875 C 17.87375 39.1315 18.08825 41.27025 18.15625 41.90625 C 18.20625 42.36825 18.20225 42.61525 18.40625 42.65625 C 18.61025 42.69725 18.93875 42.33425 19.21875 41.90625 C 19.57075 41.36825 20.79425 39.61 21.28125 38.5 C 21.71525 37.51 21.76975 37.47275 22.21875 35.71875 C 22.66775 33.96475 23.28125 31.5 23.28125 31.5 C 23.28125 31.5 24.55675 33.8125 27.96875 33.8125 C 32.82175 33.8125 37.75 29.43825 37.75 21.28125 C 37.75 14.67425 32.18725 10.59375 25.90625 10.59375 z" color="#000" overflow="visible" enable-background="accumulate" font-family="Bitstream Vera Sans"/>
</svg>